<?xml version="1.0" encoding="utf-8"?>
<!-- Generator: Adobe Illustrator 19.2.1, SVG Export Plug-In . SVG Version: 6.00 Build 0)  -->
<svg version="1.1" id="Layer_1" xmlns="http://www.w3.org/2000/svg" xmlns:xlink="http://www.w3.org/1999/xlink" x="0px" y="0px"
	 viewBox="0 0 512 512" style="enable-background:new 0 0 512 512;" xml:space="preserve">
<g>
	<path style="fill:#3F51B5;" d="M449,489H63c-22.1,0-40-17.9-40-40V63c0-22.1,17.9-40,40-40h386c22.1,0,40,17.9,40,40v386
		C489,471.1,471.1,489,449,489z"/>
</g>
<g>
	<defs>
		<path id="SVGID_1_" d="M449,489H63c-22.1,0-40-17.9-40-40V63c0-22.1,17.9-40,40-40h386c22.1,0,40,17.9,40,40v386
			C489,471.1,471.1,489,449,489z"/>
	</defs>
	<clipPath id="SVGID_2_">
		<use xlink:href="#SVGID_1_"  style="overflow:visible;"/>
	</clipPath>
</g>
<g style="opacity:0.3;">
	<path style="fill:#231F20;" d="M449,477H63c-22.1,0-40-17.9-40-40v12c0,22.1,17.9,40,40,40h386c22.1,0,40-17.9,40-40v-12
		C489,459.1,471.1,477,449,477z"/>
</g>
<g style="opacity:0.4;">
	<path style="fill:#FFFFFF;" d="M449,35H63c-22.1,0-40,17.9-40,40V63c0-22.1,17.9-40,40-40h386c22.1,0,40,17.9,40,40v12
		C489,52.9,471.1,35,449,35z"/>
</g>
<g style="opacity:0.3;">
	<rect x="125" y="333" style="fill:#231F20;" width="262" height="53"/>
	<rect x="125" y="150" style="fill:#231F20;" width="101" height="30"/>
	<path style="fill:#231F20;" d="M125,218v78h202v-78H125z M226,272h-84v-30h84V272z"/>
</g>
<g>
	<rect x="125" y="321" style="fill:#FFFFFF;" width="262" height="53"/>
	<rect x="125" y="138" style="fill:#FFFFFF;" width="101" height="30"/>
	<path style="fill:#FFFFFF;" d="M125,206v78h202v-78H125z M226,260h-84v-30h84V260z"/>
</g>
<g style="opacity:0.1;">
	<linearGradient id="SVGID_3_" gradientUnits="userSpaceOnUse" x1="34.7157" y1="34.7157" x2="477.2843" y2="477.2843">
		<stop  offset="0" style="stop-color:#FFFFFF"/>
		<stop  offset="0.4839" style="stop-color:#FFFFFF;stop-opacity:0"/>
	</linearGradient>
	<path style="fill:url(#SVGID_3_);" d="M449,489H63c-22.1,0-40-17.9-40-40V63c0-22.1,17.9-40,40-40h386c22.1,0,40,17.9,40,40v386
		C489,471.1,471.1,489,449,489z"/>
</g>
</svg>
